<?xml version="1.0" encoding="UTF-8" standalone="no"?>
<svg
   xmlns:dc="http://purl.org/dc/elements/1.1/"
   xmlns:cc="http://creativecommons.org/ns#"
   xmlns:rdf="http://www.w3.org/1999/02/22-rdf-syntax-ns#"
   xmlns:svg="http://www.w3.org/2000/svg"
   xmlns="http://www.w3.org/2000/svg"
   xml:space="preserve"
   viewBox="0 0 64 64"
   height="64"
   width="64"
   y="0px"
   x="0px"
   id="Capa_1"
   version="1.1"><metadata
   id="metadata54"><rdf:RDF><cc:Work
       rdf:about=""><dc:format>image/svg+xml</dc:format><dc:type
         rdf:resource="http://purl.org/dc/dcmitype/StillImage" /><dc:title></dc:title></cc:Work></rdf:RDF></metadata><defs
   id="defs52" />
<rect
   y="2.6645353e-15"
   x="0"
   height="64"
   width="64"
   id="rect864"
   style="fill:#000080;fill-opacity:1;stroke:none;stroke-width:0;stroke-linecap:square;stroke-linejoin:round;stroke-miterlimit:4;stroke-dasharray:none;stroke-opacity:1" /><g
   style="fill:#ffffff"
   transform="translate(9.559322,8.6355932)"
   id="g17">
	<g
   style="fill:#ffffff"
   id="Layer_1_13_">
		<g
   style="fill:#ffffff"
   id="g14">
			<path
   style="fill:#ffffff"
   id="path2"
   d="M 26.198,8.368 H 10.176 c -1.18,0 -2.137,0.957 -2.137,2.136 0,1.179 0.957,2.136 2.137,2.136 h 16.022 c 1.182,0 2.137,-0.957 2.137,-2.136 C 28.334,9.325 27.379,8.368 26.198,8.368 Z" />
			<path
   style="fill:#ffffff"
   id="path4"
   d="m 28.334,18.515 c 0,-1.18 -0.955,-2.136 -2.137,-2.136 H 10.176 c -1.18,0 -2.137,0.957 -2.137,2.136 0,1.18 0.957,2.137 2.137,2.137 h 16.022 c 1.181,0 2.136,-0.957 2.136,-2.137 z" />
			<path
   style="fill:#ffffff"
   id="path6"
   d="m 18.188,28.663 c 1.18,0 2.136,-0.957 2.136,-2.136 0,-1.18 -0.956,-2.137 -2.136,-2.137 h -8.012 c -1.18,0 -2.137,0.957 -2.137,2.137 0,1.18 0.957,2.136 2.137,2.136 z" />
			<path
   style="fill:#ffffff"
   id="path8"
   d="m 34.314,35.93 -2.241,1.479 v 5.318 H 4.301 V 4.273 h 27.772 v 8.442 L 36.346,5.314 V 2.136 C 36.346,0.956 35.389,0 34.209,0 H 2.164 C 0.984,0 0.028,0.957 0.028,2.136 v 42.729 c 0,1.18 0.956,2.136 2.136,2.136 h 32.045 c 1.181,0 2.138,-0.957 2.138,-2.136 V 33.09 l -1.021,1.766 c -0.249,0.431 -0.599,0.802 -1.012,1.074 z" />
			<path
   style="fill:#ffffff"
   id="path10"
   d="M 46.947,9.894 C 46.903,9.702 46.452,7.976 43.734,6.406 41.016,4.837 39.296,5.309 39.106,5.368 38.851,5.449 38.636,5.621 38.502,5.853 L 25.15,28.979 c -0.083,0.145 -0.132,0.306 -0.142,0.472 l -0.5,8.345 c -0.024,0.404 0.182,0.786 0.531,0.989 0.352,0.202 0.785,0.188 1.123,-0.033 l 6.977,-4.606 c 0.139,-0.09 0.254,-0.213 0.337,-0.356 L 46.829,10.66 c 0.134,-0.232 0.175,-0.504 0.118,-0.766 z M 28.854,35.055 c -0.355,-0.287 -0.758,-0.558 -1.191,-0.809 -0.435,-0.251 -0.871,-0.462 -1.297,-0.628 l 0.149,-2.502 c 0.557,0.073 1.383,0.299 2.432,0.903 1.048,0.605 1.655,1.209 1.999,1.654 z" />
			<path
   style="fill:#ffffff"
   id="path12"
   d="m 14.922,38.534 c 0.07,0.429 0.565,0.562 0.896,0.7 0.32,0.135 0.702,-0.121 0.968,-0.25 1.63,-0.793 3.838,0.139 5.584,0.139 1.033,0 1.033,-1.602 0,-1.602 -2.036,0 -3.73,-0.515 -5.748,-0.182 0,-0.117 -0.043,-0.275 -0.169,-0.49 -0.377,-0.645 -0.857,-0.828 -1.338,-0.75 -0.032,-0.076 -0.063,-0.152 -0.108,-0.229 -0.126,-0.206 -0.302,-0.309 -0.5,-0.352 0.563,-0.984 0.926,-2.025 0.557,-2.867 -0.113,-0.256 -0.434,-0.387 -0.692,-0.397 -1.07,-0.04 -1.988,1.083 -2.676,1.757 -1.721,1.687 -3.237,3.602 -4.704,5.508 -0.63,0.819 0.763,1.615 1.383,0.81 1.3,-1.688 2.677,-3.327 4.159,-4.86 -0.357,0.586 -0.736,1.161 -1.135,1.715 -0.57,0.881 0.791,1.631 1.383,0.809 0.141,-0.215 0.32,-0.37 0.516,-0.503 -0.039,0.099 -0.079,0.196 -0.119,0.296 0.002,0 0.004,10e-4 0.006,0.002 -0.031,0.064 -0.062,0.128 -0.087,0.189 -0.358,0.897 0.979,1.308 1.465,0.616 0.123,-0.174 0.237,-0.36 0.34,-0.555 -0.007,0.134 -0.01,0.314 0.019,0.496 z" />
		</g>
	</g>
</g>
<g
   transform="translate(0,17)"
   id="g19">
</g>
<g
   transform="translate(0,17)"
   id="g21">
</g>
<g
   transform="translate(0,17)"
   id="g23">
</g>
<g
   transform="translate(0,17)"
   id="g25">
</g>
<g
   transform="translate(0,17)"
   id="g27">
</g>
<g
   transform="translate(0,17)"
   id="g29">
</g>
<g
   transform="translate(0,17)"
   id="g31">
</g>
<g
   transform="translate(0,17)"
   id="g33">
</g>
<g
   transform="translate(0,17)"
   id="g35">
</g>
<g
   transform="translate(0,17)"
   id="g37">
</g>
<g
   transform="translate(0,17)"
   id="g39">
</g>
<g
   transform="translate(0,17)"
   id="g41">
</g>
<g
   transform="translate(0,17)"
   id="g43">
</g>
<g
   transform="translate(0,17)"
   id="g45">
</g>
<g
   transform="translate(0,17)"
   id="g47">
</g>
</svg>